<?xml version="1.0" encoding="UTF-8" standalone="no"?>
<svg
   width="210mm"
   height="297mm"
   viewBox="0 0 210 297"
   version="1.1"
   id="svg1"
   sodipodi:docname="ModeEclatVetorv2.svg"
   inkscape:export-filename="ModeEclatVetorv2.svg"
   inkscape:export-xdpi="24.190475"
   inkscape:export-ydpi="24.190475"
   inkscape:version="1.4-beta3 (01c8a1c, 2024-08-28, custom)"
   xmlns:inkscape="http://www.inkscape.org/namespaces/inkscape"
   xmlns:sodipodi="http://sodipodi.sourceforge.net/DTD/sodipodi-0.dtd"
   xmlns="http://www.w3.org/2000/svg"
   xmlns:svg="http://www.w3.org/2000/svg">
  <defs
     id="defs1" />
  <sodipodi:namedview
     id="namedview1"
     pagecolor="#ffffff"
     bordercolor="#000000"
     borderopacity="0.25"
     inkscape:showpageshadow="2"
     inkscape:pageopacity="0.0"
     inkscape:pagecheckerboard="0"
     inkscape:deskcolor="#d1d1d1"
     inkscape:document-units="mm"
     inkscape:export-bgcolor="#ffffff00"
     inkscape:zoom="0.71891835"
     inkscape:cx="397.12437"
     inkscape:cy="338.70328"
     inkscape:window-width="1920"
     inkscape:window-height="1009"
     inkscape:window-x="-8"
     inkscape:window-y="-8"
     inkscape:window-maximized="1"
     inkscape:current-layer="svg1" />
  <path
     d="m 75.596863,103.30176 h 3.55599 v 0.23162 l -1.52399,0.34743 v 15.05549 l 1.52399,0.34743 v 0.23162 h -5.20698 v -0.23162 l 1.52399,-0.34743 v -13.66575 l -5.46097,14.59224 h -0.381 l -6.09598,-14.59224 v 13.43412 l 1.65099,0.57906 v 0.23162 h -3.80998 v -0.23162 l 1.65099,-0.57906 v -14.70804 l -1.65099,-0.46325 v -0.23162 h 3.68298 l 5.56258,13.31831 z m 10.66796,5.55894 q -0.4318,0 -0.889,0.27795 -0.4318,0.25478 -0.8128,0.88017 -0.35559,0.60221 -0.60959,1.62136 -0.2286,1.01914 -0.2286,2.54785 0,1.52871 0.2286,2.54785 0.254,1.01914 0.60959,1.64452 0.381,0.60222 0.8128,0.88017 0.4572,0.25478 0.889,0.25478 0.4318,0 0.86359,-0.25478 0.4572,-0.27795 0.8128,-0.88017 0.381,-0.62538 0.6096,-1.64452 0.254,-1.01914 0.254,-2.54785 0,-1.52871 -0.254,-2.54785 -0.2286,-1.01915 -0.6096,-1.62136 -0.3556,-0.62539 -0.8128,-0.88017 -0.43179,-0.27795 -0.86359,-0.27795 z m 0,-0.34743 q 0.93979,0 1.80339,0.39376 0.889,0.3706 1.54939,1.11179 0.6858,0.71803 1.0668,1.78349 0.4064,1.0423 0.4064,2.38572 0,1.34341 -0.4064,2.40887 -0.381,1.04231 -1.0668,1.7835 -0.66039,0.71803 -1.54939,1.11179 -0.8636,0.3706 -1.80339,0.3706 -0.9652,0 -1.8288,-0.3706 -0.86359,-0.39376 -1.54939,-1.11179 -0.6604,-0.74119 -1.06679,-1.7835 -0.381,-1.06546 -0.381,-2.40887 0,-1.34342 0.381,-2.38572 0.40639,-1.06546 1.06679,-1.78349 0.6858,-0.74119 1.54939,-1.11179 0.8636,-0.39376 1.8288,-0.39376 z m 12.06493,0.46325 q -0.53339,0 -1.04139,0.27794 -0.4826,0.25479 -0.889,0.85701 -0.381,0.60222 -0.635,1.59819 -0.2286,0.99598 -0.2286,2.47837 0,1.48238 0.2286,2.47836 0.254,0.99598 0.6096,1.62136 0.381,0.60222 0.8128,0.857 0.4572,0.25479 0.88899,0.25479 0.6096,0 1.0668,-0.32427 0.4826,-0.32428 0.8128,-0.71804 0.380997,-0.44008 0.660387,-1.04229 v -6.94868 q -0.25399,-0.39376 -0.58419,-0.69487 -0.279397,-0.25479 -0.711197,-0.46325 -0.4064,-0.23162 -0.9906,-0.23162 z m 4.317987,9.95978 1.52399,0.34743 v 0.23162 h -3.55599 v -1.38974 q -0.27939,0.48641 -0.711187,0.88017 -0.3556,0.32428 -0.9144,0.57906 -0.5334,0.27795 -1.29539,0.27795 -0.8128,0 -1.6256,-0.3706 -0.78739,-0.39376 -1.42239,-1.11179 -0.6096,-0.74119 -1.016,-1.7835 -0.381,-1.06546 -0.381,-2.40887 0,-1.34342 0.381,-2.38572 0.4064,-1.06546 1.0668,-1.78349 0.6604,-0.74119 1.49859,-1.11179 0.8382,-0.39376 1.75259,-0.39376 0.7112,0 1.2192,0.18529 0.508,0.18531 0.838197,0.39376 0.381,0.25479 0.60959,0.57907 v -5.79058 l -1.523987,-0.34743 v -0.23162 h 3.555987 z m 5.71497,-4.74827 q 0,1.48238 0.2286,2.47836 0.254,0.99598 0.635,1.62136 0.4064,0.60222 0.889,0.857 0.50799,0.25479 1.04139,0.25479 0.6604,0 1.2446,-0.23162 0.58419,-0.23162 1.04139,-0.62538 0.4572,-0.39376 0.7366,-0.94966 0.3048,-0.55589 0.4064,-1.20444 h 0.381 q -0.1016,0.74119 -0.4572,1.38974 -0.3302,0.62539 -0.8636,1.08863 -0.5334,0.46325 -1.24459,0.71803 -0.6858,0.27795 -1.4986,0.27795 -0.96519,0 -1.82879,-0.3706 -0.8636,-0.39376 -1.54939,-1.11179 -0.6604,-0.74119 -1.0668,-1.7835 -0.381,-1.06546 -0.381,-2.40887 0,-1.38974 0.381,-2.4552 0.381,-1.06547 0.9906,-1.76033 0.63499,-0.71804 1.44779,-1.08863 0.8382,-0.3706 1.75259,-0.3706 0.9144,0 1.7272,0.3706 0.83819,0.37059 1.44779,1.08863 0.635,0.69486 1.016,1.76033 0.381,1.06546 0.381,2.4552 z m 2.28599,-5.32733 q -0.38099,0 -0.76199,0.23162 -0.381,0.20847 -0.7112,0.76436 -0.3302,0.5559 -0.5588,1.50555 -0.2032,0.9265 -0.254,2.36255 h 4.57199 q -0.0508,-1.43605 -0.2794,-2.36255 -0.2032,-0.94965 -0.5334,-1.50555 -0.3302,-0.55589 -0.7112,-0.76436 -0.381,-0.23162 -0.762,-0.23162 z m 15.49393,10.1914 q 0,-0.97281 0.4318,-1.80665 0.4318,-0.83384 1.0922,-1.43606 h 0.254 q -0.0508,0.30111 -0.0762,0.62538 -0.0254,0.27795 -0.0508,0.60222 v 1.4129 q 0.0253,0.32427 0.0508,0.57906 0.0253,0.27794 0.0762,0.4864 h -10.54096 v -0.23162 l 1.52399,-0.34743 v -15.05549 l -1.52399,-0.34743 v -0.23162 h 10.28696 q -0.0508,0.20846 -0.0762,0.4864 -0.0254,0.25479 -0.0508,0.60223 v 1.41289 q 0.0254,0.30111 0.0508,0.57906 0.0254,0.32427 0.0762,0.62538 h -0.25399 q -0.6604,-0.60222 -1.0922,-1.43606 -0.4318,-0.83384 -0.4318,-1.80665 h -4.82599 v 6.94868 h 2.41299 l 1.143,-2.08461 h 0.25401 v 4.63246 h -0.25401 l -1.143,-2.08461 h -2.41299 v 7.87517 z m 9.01696,-10.07558 q -0.48261,0 -0.96521,0.27794 -0.45719,0.25479 -0.83819,0.85701 -0.381,0.60222 -0.63499,1.59819 -0.22861,0.99598 -0.22861,2.47837 0,1.48238 0.22861,2.47836 0.25399,0.99598 0.66039,1.62136 0.4064,0.60222 0.9144,0.857 0.5334,0.25479 1.11759,0.25479 0.6604,0 1.2446,-0.23162 0.58419,-0.23162 1.0414,-0.62538 0.45719,-0.39376 0.73659,-0.94966 0.3048,-0.55589 0.40639,-1.20444 h 0.381 q -0.10157,0.74119 -0.45719,1.38974 -0.3302,0.62539 -0.8636,1.08863 -0.53339,0.46325 -1.24459,0.71803 -0.68581,0.27795 -1.49859,0.27795 -0.9906,0 -1.905,-0.3706 -0.889,-0.39376 -1.57479,-1.11179 -0.6858,-0.74119 -1.0922,-1.7835 -0.381,-1.06546 -0.381,-2.40887 0,-1.34342 0.381,-2.38572 0.4064,-1.06546 1.06679,-1.78349 0.6604,-0.74119 1.4986,-1.11179 0.8382,-0.39376 1.75259,-0.39376 0.6096,0 1.06679,0.18529 0.48261,0.18531 0.8128,0.39376 0.381,0.25479 0.6604,0.57907 0.10158,-0.34744 0.40641,-0.64855 0.33019,-0.30111 0.60959,-0.39376 h 0.38099 q -0.0508,0.30111 -0.0762,0.62538 -0.0255,0.27795 -0.0508,0.60222 v 1.34342 q 0.0253,0.34743 0.0508,0.62538 0.0255,0.32426 0.0762,0.62537 h -0.38099 q -0.4826,-1.66768 -1.42239,-2.57101 -0.9144,-0.90332 -1.87959,-0.90332 z m 6.85797,9.95978 v -15.05549 l -1.524,-0.34743 v -0.23162 h 3.55599 v 15.63454 l 1.52399,0.34743 v 0.23162 h -5.07998 v -0.23162 z m 11.81093,-5.09571 q -2.20979,0 -3.27659,0.90334 -1.04139,0.88016 -1.04139,2.4552 0,1.0423 0.5588,1.62135 0.55879,0.57906 1.21919,0.57906 0.6096,0 1.06679,-0.32427 0.4826,-0.32428 0.8128,-0.71804 0.381,-0.44008 0.6604,-1.04229 z m -1.905,-4.97989 q -0.762,0 -1.26999,0.48641 -0.508,0.46325 -0.508,1.25077 v 0.32426 q 0.0255,0.13898 0.0508,0.25479 0.0255,0.11582 0.0762,0.23162 l -2.03199,0.46325 q -0.0508,-0.0695 -0.0762,-0.1853 -0.0254,-0.11581 -0.0508,-0.25478 v -0.3706 q 0,-0.48641 0.254,-0.92649 0.25399,-0.46324 0.73659,-0.81068 0.508,-0.3706 1.1938,-0.57906 0.7112,-0.23162 1.62559,-0.23162 1.82879,0 2.87019,0.94965 1.06679,0.94966 1.06679,2.52469 v 6.94869 l 1.524,0.34743 v 0.23162 h -3.55598 v -1.38974 q -0.2794,0.48641 -0.7112,0.88017 -0.3556,0.32428 -0.9144,0.57906 -0.53339,0.27795 -1.29539,0.27795 -1.82879,0 -2.76859,-0.78752 -0.9144,-0.78752 -0.9144,-2.10776 0,-0.64855 0.381,-1.2971 0.4064,-0.64854 1.1938,-1.15811 0.81279,-0.50957 2.05739,-0.81068 1.24459,-0.32428 2.97179,-0.32428 v -1.38973 q 0,-1.73717 -0.5842,-2.43204 -0.5588,-0.69487 -1.3208,-0.69487 z m 13.46195,0 v 0.46325 h -2.92099 v 7.38877 q 0,1.41289 0.5588,2.06144 0.5588,0.62538 1.2192,0.62538 0.8636,0 1.4478,-0.57906 0.60959,-0.60222 0.7112,-1.73717 h 0.38099 q -0.10157,1.32026 -0.889,2.06144 -0.762,0.71804 -1.90499,0.71804 -1.6256,0 -2.59079,-0.85701 -0.9652,-0.88017 -0.9652,-2.2699 v -7.41193 h -2.15899 v -0.46325 h 2.15899 v -2.66366 l 2.03199,-1.27392 v 3.93758 z"
     style="-inkscape-font-specification:Oranienbaum"
     aria-label="ModeEclat"
     font-size="24.2553px"
     font-family="Oranienbaum"
     id="path1" />
</svg>
